<svg width="16" height="20" viewBox="0 0 16 20" version="1.1" xmlns="http://www.w3.org/2000/svg" xmlns:xlink="http://www.w3.org/1999/xlink">
<title>svgexport 23</title>
<desc>Created using Figma</desc>
<g id="Canvas" transform="translate(-6694 -65)">
<g id="svgexport 23">
<g id="Shape">
<use xlink:href="#path0_fill" transform="translate(6694 65)"/>
</g>
</g>
</g>
<defs>
<path id="path0_fill" d="M 14.7427 0L 1.25727 0C 0.560959 0.00321422 -0.00139759 0.563441 2.60909e-06 1.2525L 2.60909e-06 18.7475C 2.60909e-06 19.4392 0.565897 20 1.26148 20L 7.15958 20C 7.85516 20 8.42106 19.4383 8.42106 18.7483L 8.42106 11.6667L 10.1128 11.6667C 10.5732 11.6662 10.9464 11.2972 10.9474 10.8417L 10.9474 8.325C 10.9464 7.86942 10.5732 7.50046 10.1128 7.5L 10.1053 6.66333C 10.1062 6.20651 9.73322 5.83517 9.27158 5.83333L 6.72842 5.83333C 6.26679 5.83517 5.89381 6.20651 5.89474 6.66333L 5.89474 7.5L 5.88716 7.5C 5.42678 7.50046 5.05356 7.86942 5.05263 8.325L 5.05263 10.8417C 5.05263 11.2967 5.42737 11.6667 5.88716 11.6667L 7.57895 11.6667L 7.57895 18.7483C 7.5794 18.8588 7.53547 18.965 7.45682 19.0434C 7.37817 19.1219 7.27125 19.1662 7.15958 19.1667L 1.26148 19.1667C 1.14966 19.1662 1.04261 19.1218 0.96394 19.0432C 0.885269 18.9645 0.841436 18.8582 0.842108 18.7475L 0.842108 1.2525C 0.842108 1.01667 1.02484 0.833333 1.25727 0.833333L 14.7427 0.833333C 14.974 0.836533 15.1593 1.02367 15.1579 1.2525L 15.1579 18.7475C 15.1586 18.8598 15.1135 18.9675 15.0328 19.0464C 14.9521 19.1253 14.8427 19.1687 14.7293 19.1667L 10.9474 19.1667C 10.7148 19.1667 10.5263 19.3532 10.5263 19.5833C 10.5263 19.8135 10.7148 20 10.9474 20L 14.7293 20C 15.4299 20 16 19.4383 16 18.7475L 16 1.2525C 16.0014 0.563441 15.439 0.00321422 14.7427 0ZM 5.89474 10.8417L 5.88716 8.33333L 6.73684 8.33333L 6.72842 6.66667L 9.26316 6.66333L 9.26316 8.33333L 10.1053 8.325L 10.1128 10.8333L 8.42106 10.8367L 8.42106 10.0017C 8.42106 9.77155 8.23254 9.585 8 9.585C 7.76746 9.585 7.57895 9.77155 7.57895 10.0017L 7.57895 10.8383L 5.89474 10.8417Z"/>
</defs>
</svg>
