<svg width="20" height="20" viewBox="0 0 20 20" version="1.1" xmlns="http://www.w3.org/2000/svg" xmlns:xlink="http://www.w3.org/1999/xlink">
<title>svgexport-26</title>
<desc>Created using Figma</desc>
<g id="Canvas" transform="translate(-7020 -110)">
<g id="svgexport-26">
<g id="Shape">
<use xlink:href="#path0_fill" transform="translate(7020 110)"/>
</g>
</g>
</g>
<defs>
<path id="path0_fill" fill-rule="evenodd" d="M 0 10C 0 4.4775 4.47754 0 10 0C 15.5225 0 20 4.4775 20 10C 20 15.5225 15.5225 20 10 20C 4.47754 20 0 15.5225 0 10ZM 0.833496 10C 0.833496 15.0625 4.9375 19.1667 10 19.1667C 15.0625 19.1667 19.167 15.0625 19.167 10C 19.167 4.9375 15.0625 0.833336 10 0.833336C 4.9375 0.833336 0.833496 4.9375 0.833496 10ZM 11.02 5L 7.27002 5L 7.27002 14.5833C 7.27002 14.8135 7.45654 15 7.68652 15C 7.91699 15 8.10352 14.8135 8.10352 14.5833L 8.10352 10.8333L 11.02 10.8333C 12.6284 10.8333 13.9365 9.52583 13.9365 7.91666C 13.9365 6.30833 12.6284 5 11.02 5ZM 8.1001 10L 11.0166 10C 12.1641 10 13.1001 9.06583 13.1001 7.91667C 13.1001 6.76833 12.165 5.83334 11.0166 5.83334L 8.1001 5.83334L 8.1001 10Z"/>
</defs>
</svg>
