<svg width="18" height="16" viewBox="0 0 18 16" version="1.1" xmlns="http://www.w3.org/2000/svg" xmlns:xlink="http://www.w3.org/1999/xlink">
<title>like</title>
<desc>Created using Figma</desc>
<g id="Canvas" transform="translate(-766 550)">
<g id="like">
<g id="Shape">
<use xlink:href="#path0_fill" transform="translate(767 -549)" fill="#FF5A5F"/>
<use xlink:href="#path1_stroke" transform="translate(767 -549)" fill="#FF5A5F"/>
</g>
</g>
</g>
<defs>
<path id="path0_fill" d="M 12.1934 0C 12.0382 0 11.8803 0.00898169 11.7224 0.0269451C 11.1243 0.096157 10.522 0.297981 9.93449 0.627134C 9.28922 0.987458 8.67019 1.48356 7.99974 2.17832C 7.32824 1.48304 6.71025 0.987458 6.06551 0.626605C 5.47795 0.297981 4.8757 0.096157 4.2766 0.0269451C 4.12054 0.0090625 3.96361 6.64975e-05 3.80655 4.69256e-16C 2.81872 0 0 0.813107 0 4.42639C 0 8.58016 6.42015 13.0562 7.70806 13.9111C 7.88488 14.0296 8.11512 14.0296 8.29194 13.9111C 9.57933 13.0562 16 8.58016 16 4.42639C 16 0.812579 13.1808 0 12.1934 0Z"/>
<path id="path1_stroke" d="M 12.1934 0.5C 12.4696 0.5 12.6934 0.276142 12.6934 0C 12.6934 -0.276142 12.4696 -0.5 12.1934 -0.5L 12.1934 0.5ZM 11.7224 0.0269451L 11.6658 -0.469852L 11.6649 -0.46974L 11.7224 0.0269451ZM 9.93449 0.627134L 10.1783 1.06368L 10.1789 1.06335L 9.93449 0.627134ZM 7.99974 2.17832L 7.64008 2.52567C 7.73433 2.62325 7.86418 2.67835 7.99984 2.67832C 8.1355 2.6783 8.26533 2.62315 8.35953 2.52553L 7.99974 2.17832ZM 6.06551 0.626605L 6.30971 0.190294L 6.30958 0.190223L 6.06551 0.626605ZM 4.2766 0.0269451L 4.33398 -0.469752L 4.33352 -0.469804L 4.2766 0.0269451ZM 3.80655 4.69256e-16L 3.80676 -0.5L 3.80655 -0.5L 3.80655 4.69256e-16ZM 7.70806 13.9111L 7.98656 13.4958L 7.98456 13.4945L 7.70806 13.9111ZM 8.29194 13.9111L 8.01536 13.4945L 8.01344 13.4958L 8.29194 13.9111ZM 12.1934 -0.5C 11.9173 -0.5 11.6934 -0.276142 11.6934 0C 11.6934 0.276142 11.9173 0.5 12.1934 0.5L 12.1934 -0.5ZM 12.1934 -0.5C 12.024 -0.499798 11.8378 -0.489211 11.6658 -0.469851L 11.7789 0.523741C 11.9227 0.507175 12.0524 0.499798 12.1934 0.5L 12.1934 -0.5ZM 11.6649 -0.46974C 11.0155 -0.39187 10.3195 -0.159173 9.69012 0.190918L 10.1789 1.06335C 10.7246 0.755135 11.2331 0.584184 11.7798 0.52363L 11.6649 -0.46974ZM 9.69072 0.190585C 9.01003 0.572668 8.33326 1.11413 7.63995 1.83112L 8.35953 2.52553C 9.00711 1.853 9.56842 1.40225 10.1783 1.06368L 9.69072 0.190585ZM 8.35939 1.83098C 7.66515 1.11359 6.98971 0.572847 6.30971 0.190294L 5.82131 1.06292C 6.43079 1.40207 6.99133 1.85249 7.64008 2.52567L 8.35939 1.83098ZM 6.30958 0.190223C 5.6803 -0.159243 4.98442 -0.39188 4.33398 -0.469751L 4.21922 0.523642C 4.76698 0.584194 5.2756 0.755204 5.82144 1.06299L 6.30958 0.190223ZM 4.33352 -0.469804C 4.16333 -0.489103 3.97803 -0.499726 3.80676 -0.5L 3.80634 0.5C 3.94919 0.499859 4.07776 0.507228 4.21968 0.523694L 4.33352 -0.469804ZM 3.80655 -0.5C 3.21207 -0.5 2.14812 -0.265836 1.22269 0.466033C 0.272059 1.21782 -0.5 2.47016 -0.5 4.42639L 0.5 4.42639C 0.5 2.76933 1.1373 1.80848 1.84299 1.2504C 2.57387 0.67239 3.4132 0.5 3.80655 0.5L 3.80655 -0.5ZM -0.5 4.42639C -0.5 6.72691 1.25136 9.01418 3.01962 10.7615C 4.81795 12.5358 6.78363 13.8976 7.43155 14.3276L 7.98456 13.4945C 7.34457 13.0697 5.45622 11.766 3.7225 10.0502C 1.95871 8.30728 0.5 6.27964 0.5 4.42639L -0.5 4.42639ZM 7.42955 14.3263C 7.77485 14.5579 8.22515 14.5579 8.57045 14.3263L 8.01344 13.4958C 8.0051 13.5014 7.9949 13.5014 7.98656 13.4958L 7.42955 14.3263ZM 8.56853 14.3276C 9.21615 13.8975 11.1818 12.5358 12.9802 10.7615C 14.7485 9.01419 16.5 6.72692 16.5 4.42639L 15.5 4.42639C 15.5 6.27963 14.0412 8.30727 12.2773 10.0502C 10.5435 11.766 8.65513 13.0697 8.01536 13.4945L 8.56853 14.3276ZM 16.5 4.42639C 16.5 2.46989 15.7278 1.21753 14.7771 0.465807C 13.8516 -0.26599 12.7876 -0.5 12.1934 -0.5L 12.1934 0.5C 12.5866 0.5 13.4259 0.67228 14.1568 1.25022C 14.8626 1.80824 15.5 2.76908 15.5 4.42639L 16.5 4.42639Z"/>
</defs>
</svg>
